# xmcd
#
# Track frame offsets:
#	150
#	13733
#	27277
#	42027
#	57094
#	71872
#	82899
#	96069
#	112606
#	126147
#	141373
#
# Disc length: 2077 seconds
#
# Revision: 1
# Processed by: cddbd v1.5.2PL0 Copyright (c) Steve Scherf et al.
# Submitted via: EZCDAudioConverter 7.1.2.1
#
DISCID=87081b0b
DTITLE=Walker Hayes - boom.
DYEAR=2017
DGENRE=Country
TTITLE0=Beautiful
TTITLE1=Shut Up Kenny
TTITLE2=You Broke Up With Me
TTITLE3=Halloween (featuring Nicolle Galyon)
TTITLE4=Dollar Store
TTITLE5=Beer In The Fridge
TTITLE6=Beckett
TTITLE7=Mind Candy
TTITLE8=Prescriptions
TTITLE9=Craig
TTITLE10=Thank You
EXTD=
EXTT0=
EXTT1=
EXTT2=
EXTT3=
EXTT4=
EXTT5=
EXTT6=
EXTT7=
EXTT8=
EXTT9=
EXTT10=
PLAYORDER=
